<svg width="121" height="16" viewBox="0 0 121 16" fill="none" xmlns="http://www.w3.org/2000/svg">
<path d="M0 0H121V12C121 14.2091 119.209 16 117 16H4C1.79086 16 0 14.2091 0 12V0Z" fill="#F77171"/>
<path d="M35.9023 7.03711V8.49023C35.9023 9.0918 35.832 9.61914 35.6914 10.0723C35.5547 10.5254 35.3555 10.9043 35.0938 11.209C34.8359 11.5098 34.5234 11.7363 34.1562 11.8887C33.793 12.041 33.3867 12.1172 32.9375 12.1172C32.4922 12.1172 32.0859 12.041 31.7188 11.8887C31.3555 11.7363 31.041 11.5098 30.7754 11.209C30.5137 10.9043 30.3105 10.5254 30.166 10.0723C30.0254 9.61914 29.9551 9.0918 29.9551 8.49023V7.03711C29.9551 6.42773 30.0254 5.89453 30.166 5.4375C30.3066 4.97656 30.5078 4.5918 30.7695 4.2832C31.0352 3.97461 31.3496 3.74219 31.7129 3.58594C32.0801 3.42969 32.4844 3.35156 32.9258 3.35156C33.375 3.35156 33.7812 3.42969 34.1445 3.58594C34.5117 3.74219 34.8262 3.97461 35.0879 4.2832C35.3496 4.5918 35.5508 4.97656 35.6914 5.4375C35.832 5.89453 35.9023 6.42773 35.9023 7.03711ZM34.4902 8.49023V7.02539C34.4902 6.5918 34.4551 6.2207 34.3848 5.91211C34.3184 5.59961 34.2188 5.3457 34.0859 5.15039C33.9531 4.95117 33.7891 4.80469 33.5938 4.71094C33.4023 4.61328 33.1797 4.56445 32.9258 4.56445C32.6797 4.56445 32.459 4.61328 32.2637 4.71094C32.0723 4.80469 31.9082 4.95117 31.7715 5.15039C31.6387 5.3457 31.5371 5.59961 31.4668 5.91211C31.4004 6.2207 31.3672 6.5918 31.3672 7.02539V8.49023C31.3672 8.91602 31.4023 9.2832 31.4727 9.5918C31.543 9.89648 31.6445 10.1465 31.7773 10.3418C31.9141 10.5332 32.0801 10.6758 32.2754 10.7695C32.4707 10.8633 32.6914 10.9102 32.9375 10.9102C33.1875 10.9102 33.4102 10.8633 33.6055 10.7695C33.8008 10.6758 33.9629 10.5332 34.0918 10.3418C34.2246 10.1465 34.3242 9.89648 34.3906 9.5918C34.457 9.2832 34.4902 8.91602 34.4902 8.49023ZM39.0195 12H37.6543V5.05664C37.6543 4.58398 37.7324 4.1875 37.8887 3.86719C38.0488 3.54297 38.2734 3.29688 38.5625 3.12891C38.8555 2.96094 39.2012 2.87695 39.5996 2.87695C39.7207 2.87695 39.8398 2.88672 39.957 2.90625C40.0742 2.92188 40.1855 2.94727 40.291 2.98242L40.2617 4.0957C40.207 4.08008 40.1387 4.06836 40.0566 4.06055C39.9785 4.05273 39.9023 4.04883 39.8281 4.04883C39.6562 4.04883 39.5098 4.08789 39.3887 4.16602C39.2676 4.24414 39.1758 4.35742 39.1133 4.50586C39.0508 4.6543 39.0195 4.83789 39.0195 5.05664V12ZM40.0508 5.66016V6.71484H36.8574V5.66016H40.0508ZM42.8867 12H41.5215V5.05664C41.5215 4.58398 41.5996 4.1875 41.7559 3.86719C41.916 3.54297 42.1406 3.29688 42.4297 3.12891C42.7227 2.96094 43.0684 2.87695 43.4668 2.87695C43.5879 2.87695 43.707 2.88672 43.8242 2.90625C43.9414 2.92188 44.0527 2.94727 44.1582 2.98242L44.1289 4.0957C44.0742 4.08008 44.0059 4.06836 43.9238 4.06055C43.8457 4.05273 43.7695 4.04883 43.6953 4.04883C43.5234 4.04883 43.377 4.08789 43.2559 4.16602C43.1348 4.24414 43.043 4.35742 42.9805 4.50586C42.918 4.6543 42.8867 4.83789 42.8867 5.05664V12ZM43.918 5.66016V6.71484H40.7246V5.66016H43.918ZM47.252 12.1172C46.8418 12.1172 46.4766 12.0566 46.1562 11.9355C45.8359 11.8105 45.5645 11.627 45.3418 11.3848C45.1191 11.1387 44.9492 10.8379 44.832 10.4824C44.7148 10.123 44.6562 9.70703 44.6562 9.23438V8.625C44.6562 8.08984 44.7168 7.62891 44.8379 7.24219C44.9629 6.85156 45.1348 6.53125 45.3535 6.28125C45.5723 6.03125 45.8301 5.8457 46.127 5.72461C46.4277 5.60352 46.7539 5.54297 47.1055 5.54297C47.5039 5.54297 47.8496 5.60742 48.1426 5.73633C48.4355 5.86523 48.6758 6.05859 48.8633 6.31641C49.0547 6.57422 49.1953 6.89258 49.2852 7.27148C49.3789 7.65039 49.4258 8.08594 49.4258 8.57812V9.26367H45.3125V8.23242H48.0781V8.08594C48.0703 7.79688 48.0352 7.54883 47.9727 7.3418C47.9102 7.13086 47.8086 6.9707 47.668 6.86133C47.5312 6.74805 47.3418 6.69141 47.0996 6.69141C46.9238 6.69141 46.7676 6.72461 46.6309 6.79102C46.4941 6.85742 46.3809 6.96484 46.291 7.11328C46.2051 7.26172 46.1387 7.46094 46.0918 7.71094C46.0449 7.95703 46.0215 8.26172 46.0215 8.625V9.23438C46.0215 9.55078 46.0488 9.81836 46.1035 10.0371C46.1621 10.2559 46.248 10.4355 46.3613 10.5762C46.4746 10.7129 46.6113 10.8145 46.7715 10.8809C46.9355 10.9434 47.125 10.9746 47.3398 10.9746C47.6562 10.9746 47.9277 10.916 48.1543 10.7988C48.3848 10.6777 48.584 10.5215 48.752 10.3301L49.3555 11.168C49.2422 11.3203 49.0898 11.4707 48.8984 11.6191C48.707 11.7637 48.4746 11.8828 48.2012 11.9766C47.9316 12.0703 47.6152 12.1172 47.252 12.1172ZM51.8867 6.88477V12H50.5215V5.66016H51.8223L51.8867 6.88477ZM53.416 5.61914L53.4102 6.9668C53.332 6.94727 53.248 6.93555 53.1582 6.93164C53.0723 6.92383 52.9863 6.91992 52.9004 6.91992C52.7129 6.91992 52.5508 6.95312 52.4141 7.01953C52.2773 7.08594 52.1621 7.18164 52.0684 7.30664C51.9746 7.43164 51.9004 7.58203 51.8457 7.75781C51.7949 7.93359 51.7637 8.13281 51.752 8.35547L51.459 8.36719C51.459 7.96875 51.4902 7.59961 51.5527 7.25977C51.6152 6.91602 51.709 6.61719 51.834 6.36328C51.9629 6.10547 52.123 5.9043 52.3145 5.75977C52.5059 5.61523 52.7285 5.54297 52.9824 5.54297C53.0527 5.54297 53.1328 5.55078 53.2227 5.56641C53.3125 5.58203 53.377 5.59961 53.416 5.61914ZM59.5449 12.1172C59.1348 12.1172 58.7695 12.0566 58.4492 11.9355C58.1289 11.8105 57.8574 11.627 57.6348 11.3848C57.4121 11.1387 57.2422 10.8379 57.125 10.4824C57.0078 10.123 56.9492 9.70703 56.9492 9.23438V8.625C56.9492 8.08984 57.0098 7.62891 57.1309 7.24219C57.2559 6.85156 57.4277 6.53125 57.6465 6.28125C57.8652 6.03125 58.123 5.8457 58.4199 5.72461C58.7207 5.60352 59.0469 5.54297 59.3984 5.54297C59.7969 5.54297 60.1426 5.60742 60.4355 5.73633C60.7285 5.86523 60.9688 6.05859 61.1562 6.31641C61.3477 6.57422 61.4883 6.89258 61.5781 7.27148C61.6719 7.65039 61.7188 8.08594 61.7188 8.57812V9.26367H57.6055V8.23242H60.3711V8.08594C60.3633 7.79688 60.3281 7.54883 60.2656 7.3418C60.2031 7.13086 60.1016 6.9707 59.9609 6.86133C59.8242 6.74805 59.6348 6.69141 59.3926 6.69141C59.2168 6.69141 59.0605 6.72461 58.9238 6.79102C58.7871 6.85742 58.6738 6.96484 58.584 7.11328C58.498 7.26172 58.4316 7.46094 58.3848 7.71094C58.3379 7.95703 58.3145 8.26172 58.3145 8.625V9.23438C58.3145 9.55078 58.3418 9.81836 58.3965 10.0371C58.4551 10.2559 58.541 10.4355 58.6543 10.5762C58.7676 10.7129 58.9043 10.8145 59.0645 10.8809C59.2285 10.9434 59.418 10.9746 59.6328 10.9746C59.9492 10.9746 60.2207 10.916 60.4473 10.7988C60.6777 10.6777 60.877 10.5215 61.0449 10.3301L61.6484 11.168C61.5352 11.3203 61.3828 11.4707 61.1914 11.6191C61 11.7637 60.7676 11.8828 60.4941 11.9766C60.2246 12.0703 59.9082 12.1172 59.5449 12.1172ZM63.9219 5.66016L64.8359 7.59375L65.6973 5.66016H67.1914L65.5273 8.77148L67.25 12H65.7559L64.8066 10.002L63.875 12H62.375L64.0566 8.7832L62.4277 5.66016H63.9219ZM69.5352 6.87891V14.4375H68.1758V5.66016H69.4238L69.5352 6.87891ZM72.9453 8.57812V9.08203C72.9453 9.57812 72.9004 10.0156 72.8105 10.3945C72.7207 10.7734 72.5879 11.0918 72.4121 11.3496C72.2402 11.6035 72.0273 11.7949 71.7734 11.9238C71.5195 12.0527 71.2227 12.1172 70.8828 12.1172C70.5625 12.1172 70.2832 12.0469 70.0449 11.9062C69.8105 11.7656 69.6133 11.5684 69.4531 11.3145C69.293 11.0605 69.1641 10.7598 69.0664 10.4121C68.9727 10.0605 68.9043 9.67773 68.8613 9.26367V8.49023C68.9043 8.05273 68.9707 7.6543 69.0605 7.29492C69.1543 6.93164 69.2812 6.61914 69.4414 6.35742C69.6055 6.0957 69.8047 5.89453 70.0391 5.75391C70.2734 5.61328 70.5527 5.54297 70.877 5.54297C71.2168 5.54297 71.5156 5.60352 71.7734 5.72461C72.0312 5.8457 72.2461 6.03125 72.418 6.28125C72.5938 6.53125 72.7246 6.84766 72.8105 7.23047C72.9004 7.60938 72.9453 8.05859 72.9453 8.57812ZM71.5801 9.08203V8.57812C71.5801 8.25391 71.5586 7.97461 71.5156 7.74023C71.4766 7.50195 71.4102 7.30664 71.3164 7.1543C71.2266 7.00195 71.1113 6.88867 70.9707 6.81445C70.834 6.74023 70.6641 6.70312 70.4609 6.70312C70.2812 6.70312 70.123 6.74023 69.9863 6.81445C69.8496 6.88867 69.7344 6.99219 69.6406 7.125C69.5469 7.25391 69.4727 7.4082 69.418 7.58789C69.3633 7.76367 69.3281 7.95508 69.3125 8.16211V9.59766C69.3477 9.84766 69.4062 10.0781 69.4883 10.2891C69.5703 10.4961 69.6895 10.6621 69.8457 10.7871C70.0059 10.9121 70.2148 10.9746 70.4727 10.9746C70.6719 10.9746 70.8418 10.9355 70.9824 10.8574C71.123 10.7793 71.2363 10.6621 71.3223 10.5059C71.4121 10.3496 71.4766 10.1543 71.5156 9.91992C71.5586 9.68164 71.5801 9.40234 71.5801 9.08203ZM75.5469 5.66016V12H74.1816V5.66016H75.5469ZM74.1113 4.00195C74.1113 3.7832 74.1777 3.60156 74.3105 3.45703C74.4434 3.30859 74.6289 3.23438 74.8672 3.23438C75.1055 3.23438 75.291 3.30664 75.4238 3.45117C75.5566 3.5957 75.623 3.77734 75.623 3.99609C75.623 4.21094 75.5566 4.39062 75.4238 4.53516C75.291 4.67969 75.1055 4.75195 74.8672 4.75195C74.6289 4.75195 74.4434 4.67969 74.3105 4.53516C74.1777 4.39062 74.1113 4.21289 74.1113 4.00195ZM78.3711 6.88477V12H77.0059V5.66016H78.3066L78.3711 6.88477ZM79.9004 5.61914L79.8945 6.9668C79.8164 6.94727 79.7324 6.93555 79.6426 6.93164C79.5566 6.92383 79.4707 6.91992 79.3848 6.91992C79.1973 6.91992 79.0352 6.95312 78.8984 7.01953C78.7617 7.08594 78.6465 7.18164 78.5527 7.30664C78.459 7.43164 78.3848 7.58203 78.3301 7.75781C78.2793 7.93359 78.248 8.13281 78.2363 8.35547L77.9434 8.36719C77.9434 7.96875 77.9746 7.59961 78.0371 7.25977C78.0996 6.91602 78.1934 6.61719 78.3184 6.36328C78.4473 6.10547 78.6074 5.9043 78.7988 5.75977C78.9902 5.61523 79.2129 5.54297 79.4668 5.54297C79.5371 5.54297 79.6172 5.55078 79.707 5.56641C79.7969 5.58203 79.8613 5.59961 79.9004 5.61914ZM83.1465 12.1172C82.7363 12.1172 82.3711 12.0566 82.0508 11.9355C81.7305 11.8105 81.459 11.627 81.2363 11.3848C81.0137 11.1387 80.8438 10.8379 80.7266 10.4824C80.6094 10.123 80.5508 9.70703 80.5508 9.23438V8.625C80.5508 8.08984 80.6113 7.62891 80.7324 7.24219C80.8574 6.85156 81.0293 6.53125 81.248 6.28125C81.4668 6.03125 81.7246 5.8457 82.0215 5.72461C82.3223 5.60352 82.6484 5.54297 83 5.54297C83.3984 5.54297 83.7441 5.60742 84.0371 5.73633C84.3301 5.86523 84.5703 6.05859 84.7578 6.31641C84.9492 6.57422 85.0898 6.89258 85.1797 7.27148C85.2734 7.65039 85.3203 8.08594 85.3203 8.57812V9.26367H81.207V8.23242H83.9727V8.08594C83.9648 7.79688 83.9297 7.54883 83.8672 7.3418C83.8047 7.13086 83.7031 6.9707 83.5625 6.86133C83.4258 6.74805 83.2363 6.69141 82.9941 6.69141C82.8184 6.69141 82.6621 6.72461 82.5254 6.79102C82.3887 6.85742 82.2754 6.96484 82.1855 7.11328C82.0996 7.26172 82.0332 7.46094 81.9863 7.71094C81.9395 7.95703 81.916 8.26172 81.916 8.625V9.23438C81.916 9.55078 81.9434 9.81836 81.998 10.0371C82.0566 10.2559 82.1426 10.4355 82.2559 10.5762C82.3691 10.7129 82.5059 10.8145 82.666 10.8809C82.8301 10.9434 83.0195 10.9746 83.2344 10.9746C83.5508 10.9746 83.8223 10.916 84.0488 10.7988C84.2793 10.6777 84.4785 10.5215 84.6465 10.3301L85.25 11.168C85.1367 11.3203 84.9844 11.4707 84.793 11.6191C84.6016 11.7637 84.3691 11.8828 84.0957 11.9766C83.8262 12.0703 83.5098 12.1172 83.1465 12.1172ZM89.6035 10.6758V3H90.9688V12L89.7324 12.0059L89.6035 10.6758ZM86.1992 9.08789V8.58984C86.1992 8.07031 86.2461 7.62109 86.3398 7.24219C86.4336 6.85938 86.5703 6.54102 86.75 6.28711C86.9336 6.0332 87.1543 5.8457 87.4121 5.72461C87.6699 5.60352 87.9609 5.54297 88.2852 5.54297C88.6016 5.54297 88.875 5.61523 89.1055 5.75977C89.3359 5.90039 89.5312 6.10156 89.6914 6.36328C89.8516 6.625 89.9785 6.9375 90.0723 7.30078C90.1699 7.66016 90.2363 8.0625 90.2715 8.50781V9.19922C90.2285 9.62891 90.1602 10.0234 90.0664 10.3828C89.9727 10.7383 89.8457 11.0449 89.6855 11.3027C89.5254 11.5605 89.3281 11.7617 89.0938 11.9062C88.8633 12.0469 88.5918 12.1172 88.2793 12.1172C87.9551 12.1172 87.6641 12.0527 87.4062 11.9238C87.1523 11.7949 86.9336 11.6035 86.75 11.3496C86.5703 11.0957 86.4336 10.7812 86.3398 10.4062C86.2461 10.0273 86.1992 9.58789 86.1992 9.08789ZM87.5645 8.58984V9.08789C87.5645 9.41211 87.584 9.69141 87.623 9.92578C87.6621 10.1602 87.7246 10.3535 87.8105 10.5059C87.8965 10.6543 88.0098 10.7656 88.1504 10.8398C88.291 10.9102 88.4609 10.9453 88.6602 10.9453C88.9102 10.9453 89.1133 10.8828 89.2695 10.7578C89.4297 10.6328 89.5527 10.4648 89.6387 10.2539C89.7285 10.0391 89.791 9.80078 89.8262 9.53906V8.17383C89.8066 7.9668 89.7676 7.77539 89.709 7.59961C89.6504 7.41992 89.5742 7.26367 89.4805 7.13086C89.3867 6.99805 89.2715 6.89453 89.1348 6.82031C89.002 6.74219 88.8457 6.70312 88.666 6.70312C88.4668 6.70312 88.2969 6.74219 88.1562 6.82031C88.0156 6.89453 87.9023 7.00977 87.8164 7.16602C87.7305 7.31836 87.666 7.51367 87.623 7.75195C87.584 7.98633 87.5645 8.26562 87.5645 8.58984Z" fill="white"/>
</svg>
