<svg width="121" height="16" viewBox="0 0 121 16" fill="none" xmlns="http://www.w3.org/2000/svg">
<path d="M0 0H121V12C121 14.2091 119.209 16 117 16H4C1.79086 16 0 14.2091 0 12V0Z" fill="#47BA68"/>
<path d="M25.8828 3.46875H28.4609C29.0234 3.46875 29.5 3.56641 29.8906 3.76172C30.2812 3.95703 30.5781 4.24609 30.7812 4.62891C30.9883 5.00781 31.0918 5.47852 31.0918 6.04102C31.0918 6.4668 31.0273 6.8418 30.8984 7.16602C30.7734 7.49023 30.5918 7.76367 30.3535 7.98633C30.1152 8.20508 29.8281 8.375 29.4922 8.49609L29.0762 8.72461H26.8965L26.8906 7.5293H28.4258C28.7031 7.5293 28.9336 7.46875 29.1172 7.34766C29.3008 7.22656 29.4375 7.05859 29.5273 6.84375C29.6211 6.62891 29.668 6.38477 29.668 6.11133C29.668 5.81836 29.627 5.56445 29.5449 5.34961C29.4629 5.13086 29.334 4.96289 29.1582 4.8457C28.9824 4.72461 28.75 4.66406 28.4609 4.66406H27.3066V12H25.8828V3.46875ZM29.8555 12L28.2324 8.16797L29.7148 8.16211L31.3789 11.9238V12H29.8555ZM34.707 12.1172C34.2969 12.1172 33.9316 12.0566 33.6113 11.9355C33.291 11.8105 33.0195 11.627 32.7969 11.3848C32.5742 11.1387 32.4043 10.8379 32.2871 10.4824C32.1699 10.123 32.1113 9.70703 32.1113 9.23438V8.625C32.1113 8.08984 32.1719 7.62891 32.293 7.24219C32.418 6.85156 32.5898 6.53125 32.8086 6.28125C33.0273 6.03125 33.2852 5.8457 33.582 5.72461C33.8828 5.60352 34.209 5.54297 34.5605 5.54297C34.959 5.54297 35.3047 5.60742 35.5977 5.73633C35.8906 5.86523 36.1309 6.05859 36.3184 6.31641C36.5098 6.57422 36.6504 6.89258 36.7402 7.27148C36.834 7.65039 36.8809 8.08594 36.8809 8.57812V9.26367H32.7676V8.23242H35.5332V8.08594C35.5254 7.79688 35.4902 7.54883 35.4277 7.3418C35.3652 7.13086 35.2637 6.9707 35.123 6.86133C34.9863 6.74805 34.7969 6.69141 34.5547 6.69141C34.3789 6.69141 34.2227 6.72461 34.0859 6.79102C33.9492 6.85742 33.8359 6.96484 33.7461 7.11328C33.6602 7.26172 33.5938 7.46094 33.5469 7.71094C33.5 7.95703 33.4766 8.26172 33.4766 8.625V9.23438C33.4766 9.55078 33.5039 9.81836 33.5586 10.0371C33.6172 10.2559 33.7031 10.4355 33.8164 10.5762C33.9297 10.7129 34.0664 10.8145 34.2266 10.8809C34.3906 10.9434 34.5801 10.9746 34.7949 10.9746C35.1113 10.9746 35.3828 10.916 35.6094 10.7988C35.8398 10.6777 36.0391 10.5215 36.207 10.3301L36.8105 11.168C36.6973 11.3203 36.5449 11.4707 36.3535 11.6191C36.1621 11.7637 35.9297 11.8828 35.6562 11.9766C35.3867 12.0703 35.0703 12.1172 34.707 12.1172ZM40.2266 10.9746C40.4023 10.9746 40.5586 10.9375 40.6953 10.8633C40.8359 10.7891 40.9473 10.6738 41.0293 10.5176C41.1113 10.3574 41.1562 10.1504 41.1641 9.89648H42.4473C42.4395 10.3457 42.3359 10.7383 42.1367 11.0742C41.9375 11.4062 41.6719 11.6641 41.3398 11.8477C41.0117 12.0273 40.6465 12.1172 40.2441 12.1172C39.8262 12.1172 39.4609 12.0508 39.1484 11.918C38.8398 11.7812 38.584 11.584 38.3809 11.3262C38.1777 11.0684 38.0254 10.7559 37.9238 10.3887C37.8262 10.0176 37.7773 9.59375 37.7773 9.11719V8.54297C37.7773 8.07031 37.8262 7.64844 37.9238 7.27734C38.0254 6.90625 38.1777 6.5918 38.3809 6.33398C38.584 6.07617 38.8398 5.88086 39.1484 5.74805C39.457 5.61133 39.8203 5.54297 40.2383 5.54297C40.6836 5.54297 41.0684 5.63672 41.3926 5.82422C41.7207 6.00781 41.9766 6.27734 42.1602 6.63281C42.3438 6.98828 42.4395 7.42383 42.4473 7.93945H41.1641C41.1562 7.66602 41.1152 7.4375 41.041 7.25391C40.9668 7.06641 40.8613 6.92578 40.7246 6.83203C40.5918 6.73828 40.4238 6.69141 40.2207 6.69141C39.998 6.69141 39.8145 6.73438 39.6699 6.82031C39.5293 6.90234 39.4199 7.02344 39.3418 7.18359C39.2676 7.34375 39.2148 7.53906 39.1836 7.76953C39.1562 7.99609 39.1426 8.25391 39.1426 8.54297V9.11719C39.1426 9.41406 39.1562 9.67773 39.1836 9.9082C39.2109 10.1348 39.2617 10.3281 39.3359 10.4883C39.4141 10.6484 39.5254 10.7695 39.6699 10.8516C39.8145 10.9336 40 10.9746 40.2266 10.9746ZM43.3086 9.08789V8.57812C43.3086 8.08594 43.3691 7.65039 43.4902 7.27148C43.6113 6.89258 43.7832 6.57617 44.0059 6.32227C44.2324 6.06445 44.498 5.87109 44.8027 5.74219C45.1074 5.60938 45.4434 5.54297 45.8105 5.54297C46.1855 5.54297 46.5254 5.60938 46.8301 5.74219C47.1387 5.87109 47.4043 6.06445 47.627 6.32227C47.8535 6.57617 48.0273 6.89258 48.1484 7.27148C48.2695 7.65039 48.3301 8.08594 48.3301 8.57812V9.08789C48.3301 9.58008 48.2695 10.0156 48.1484 10.3945C48.0273 10.7734 47.8535 11.0918 47.627 11.3496C47.4043 11.6035 47.1406 11.7949 46.8359 11.9238C46.5312 12.0527 46.1934 12.1172 45.8223 12.1172C45.4551 12.1172 45.1172 12.0527 44.8086 11.9238C44.5039 11.7949 44.2383 11.6035 44.0117 11.3496C43.7852 11.0918 43.6113 10.7734 43.4902 10.3945C43.3691 10.0156 43.3086 9.58008 43.3086 9.08789ZM44.6738 8.57812V9.08789C44.6738 9.4043 44.7012 9.68164 44.7559 9.91992C44.8105 10.1543 44.8887 10.3496 44.9902 10.5059C45.0918 10.6621 45.2129 10.7793 45.3535 10.8574C45.4941 10.9355 45.6504 10.9746 45.8223 10.9746C46.0137 10.9746 46.1797 10.9355 46.3203 10.8574C46.4648 10.7793 46.584 10.6621 46.6777 10.5059C46.7754 10.3496 46.8477 10.1543 46.8945 9.91992C46.9414 9.68164 46.9648 9.4043 46.9648 9.08789V8.57812C46.9648 8.26562 46.9375 7.99219 46.8828 7.75781C46.8281 7.51953 46.75 7.32227 46.6484 7.16602C46.5469 7.00586 46.4238 6.88672 46.2793 6.80859C46.1387 6.73047 45.9824 6.69141 45.8105 6.69141C45.6426 6.69141 45.4883 6.73047 45.3477 6.80859C45.2109 6.88672 45.0918 7.00586 44.9902 7.16602C44.8887 7.32227 44.8105 7.51953 44.7559 7.75781C44.7012 7.99219 44.6738 8.26562 44.6738 8.57812ZM50.8789 6.94922V12H49.5137V5.66016H50.7969L50.8789 6.94922ZM50.6562 8.60156H50.1934C50.1855 8.16016 50.2246 7.75391 50.3105 7.38281C50.4004 7.01172 50.5332 6.6875 50.709 6.41016C50.8887 6.13281 51.1133 5.91992 51.3828 5.77148C51.6523 5.61914 51.9668 5.54297 52.3262 5.54297C52.5645 5.54297 52.7832 5.58594 52.9824 5.67188C53.1855 5.75391 53.3613 5.88477 53.5098 6.06445C53.6621 6.24414 53.7793 6.47461 53.8613 6.75586C53.9434 7.03711 53.9844 7.37695 53.9844 7.77539V12H52.6191V7.9043C52.6191 7.59961 52.584 7.36133 52.5137 7.18945C52.4473 7.01367 52.3496 6.88867 52.2207 6.81445C52.0918 6.74023 51.9355 6.70312 51.752 6.70312C51.5527 6.70312 51.3828 6.75391 51.2422 6.85547C51.1016 6.95312 50.9883 7.08984 50.9023 7.26562C50.8164 7.4375 50.7539 7.63867 50.7148 7.86914C50.6758 8.0957 50.6562 8.33984 50.6562 8.60156ZM53.8965 8.23828L53.2578 8.38477C53.25 7.99805 53.2891 7.63477 53.375 7.29492C53.4609 6.95117 53.5898 6.64844 53.7617 6.38672C53.9375 6.125 54.1562 5.91992 54.418 5.77148C54.6836 5.61914 54.9902 5.54297 55.3379 5.54297C55.6113 5.54297 55.8555 5.58789 56.0703 5.67773C56.2852 5.76367 56.4688 5.90039 56.6211 6.08789C56.7734 6.27539 56.8887 6.51953 56.9668 6.82031C57.0488 7.11719 57.0898 7.47852 57.0898 7.9043V12H55.7188V7.89844C55.7188 7.58203 55.6836 7.33789 55.6133 7.16602C55.5469 6.99414 55.4492 6.875 55.3203 6.80859C55.1914 6.73828 55.0371 6.70312 54.8574 6.70312C54.7012 6.70312 54.5625 6.74414 54.4414 6.82617C54.3242 6.9043 54.2246 7.01367 54.1426 7.1543C54.0605 7.29492 53.998 7.45898 53.9551 7.64648C53.916 7.83008 53.8965 8.02734 53.8965 8.23828ZM59.8438 6.94922V12H58.4785V5.66016H59.7617L59.8438 6.94922ZM59.6211 8.60156H59.1582C59.1504 8.16016 59.1895 7.75391 59.2754 7.38281C59.3652 7.01172 59.498 6.6875 59.6738 6.41016C59.8535 6.13281 60.0781 5.91992 60.3477 5.77148C60.6172 5.61914 60.9316 5.54297 61.291 5.54297C61.5293 5.54297 61.748 5.58594 61.9473 5.67188C62.1504 5.75391 62.3262 5.88477 62.4746 6.06445C62.627 6.24414 62.7441 6.47461 62.8262 6.75586C62.9082 7.03711 62.9492 7.37695 62.9492 7.77539V12H61.584V7.9043C61.584 7.59961 61.5488 7.36133 61.4785 7.18945C61.4121 7.01367 61.3145 6.88867 61.1855 6.81445C61.0566 6.74023 60.9004 6.70312 60.7168 6.70312C60.5176 6.70312 60.3477 6.75391 60.207 6.85547C60.0664 6.95312 59.9531 7.08984 59.8672 7.26562C59.7812 7.4375 59.7188 7.63867 59.6797 7.86914C59.6406 8.0957 59.6211 8.33984 59.6211 8.60156ZM62.8613 8.23828L62.2227 8.38477C62.2148 7.99805 62.2539 7.63477 62.3398 7.29492C62.4258 6.95117 62.5547 6.64844 62.7266 6.38672C62.9023 6.125 63.1211 5.91992 63.3828 5.77148C63.6484 5.61914 63.9551 5.54297 64.3027 5.54297C64.5762 5.54297 64.8203 5.58789 65.0352 5.67773C65.25 5.76367 65.4336 5.90039 65.5859 6.08789C65.7383 6.27539 65.8535 6.51953 65.9316 6.82031C66.0137 7.11719 66.0547 7.47852 66.0547 7.9043V12H64.6836V7.89844C64.6836 7.58203 64.6484 7.33789 64.5781 7.16602C64.5117 6.99414 64.4141 6.875 64.2852 6.80859C64.1562 6.73828 64.002 6.70312 63.8223 6.70312C63.666 6.70312 63.5273 6.74414 63.4062 6.82617C63.2891 6.9043 63.1895 7.01367 63.1074 7.1543C63.0254 7.29492 62.9629 7.45898 62.9199 7.64648C62.8809 7.83008 62.8613 8.02734 62.8613 8.23828ZM69.8633 12.1172C69.4531 12.1172 69.0879 12.0566 68.7676 11.9355C68.4473 11.8105 68.1758 11.627 67.9531 11.3848C67.7305 11.1387 67.5605 10.8379 67.4434 10.4824C67.3262 10.123 67.2676 9.70703 67.2676 9.23438V8.625C67.2676 8.08984 67.3281 7.62891 67.4492 7.24219C67.5742 6.85156 67.7461 6.53125 67.9648 6.28125C68.1836 6.03125 68.4414 5.8457 68.7383 5.72461C69.0391 5.60352 69.3652 5.54297 69.7168 5.54297C70.1152 5.54297 70.4609 5.60742 70.7539 5.73633C71.0469 5.86523 71.2871 6.05859 71.4746 6.31641C71.666 6.57422 71.8066 6.89258 71.8965 7.27148C71.9902 7.65039 72.0371 8.08594 72.0371 8.57812V9.26367H67.9238V8.23242H70.6895V8.08594C70.6816 7.79688 70.6465 7.54883 70.584 7.3418C70.5215 7.13086 70.4199 6.9707 70.2793 6.86133C70.1426 6.74805 69.9531 6.69141 69.7109 6.69141C69.5352 6.69141 69.3789 6.72461 69.2422 6.79102C69.1055 6.85742 68.9922 6.96484 68.9023 7.11328C68.8164 7.26172 68.75 7.46094 68.7031 7.71094C68.6562 7.95703 68.6328 8.26172 68.6328 8.625V9.23438C68.6328 9.55078 68.6602 9.81836 68.7148 10.0371C68.7734 10.2559 68.8594 10.4355 68.9727 10.5762C69.0859 10.7129 69.2227 10.8145 69.3828 10.8809C69.5469 10.9434 69.7363 10.9746 69.9512 10.9746C70.2676 10.9746 70.5391 10.916 70.7656 10.7988C70.9961 10.6777 71.1953 10.5215 71.3633 10.3301L71.9668 11.168C71.8535 11.3203 71.7012 11.4707 71.5098 11.6191C71.3184 11.7637 71.0859 11.8828 70.8125 11.9766C70.543 12.0703 70.2266 12.1172 69.8633 12.1172ZM74.4805 7.01367V12H73.1152V5.66016H74.3984L74.4805 7.01367ZM74.2344 8.60156H73.8008C73.7969 8.14453 73.8457 7.72852 73.9473 7.35352C74.0488 6.97852 74.1934 6.65625 74.3809 6.38672C74.5723 6.11719 74.7988 5.91016 75.0605 5.76562C75.3262 5.61719 75.6211 5.54297 75.9453 5.54297C76.1953 5.54297 76.4238 5.58594 76.6309 5.67188C76.8418 5.75391 77.0215 5.88867 77.1699 6.07617C77.3184 6.26367 77.4316 6.50781 77.5098 6.80859C77.5918 7.10938 77.6328 7.47656 77.6328 7.91016V12H76.2676V7.89844C76.2676 7.60156 76.2344 7.36719 76.168 7.19531C76.1055 7.01953 76.0117 6.89453 75.8867 6.82031C75.7617 6.74219 75.6035 6.70312 75.4121 6.70312C75.2363 6.70312 75.0742 6.75391 74.9258 6.85547C74.7812 6.95312 74.6562 7.08984 74.5508 7.26562C74.4492 7.4375 74.3711 7.63867 74.3164 7.86914C74.2617 8.0957 74.2344 8.33984 74.2344 8.60156ZM82.1914 10.6758V3H83.5566V12L82.3203 12.0059L82.1914 10.6758ZM78.7871 9.08789V8.58984C78.7871 8.07031 78.834 7.62109 78.9277 7.24219C79.0215 6.85938 79.1582 6.54102 79.3379 6.28711C79.5215 6.0332 79.7422 5.8457 80 5.72461C80.2578 5.60352 80.5488 5.54297 80.873 5.54297C81.1895 5.54297 81.4629 5.61523 81.6934 5.75977C81.9238 5.90039 82.1191 6.10156 82.2793 6.36328C82.4395 6.625 82.5664 6.9375 82.6602 7.30078C82.7578 7.66016 82.8242 8.0625 82.8594 8.50781V9.19922C82.8164 9.62891 82.748 10.0234 82.6543 10.3828C82.5605 10.7383 82.4336 11.0449 82.2734 11.3027C82.1133 11.5605 81.916 11.7617 81.6816 11.9062C81.4512 12.0469 81.1797 12.1172 80.8672 12.1172C80.543 12.1172 80.252 12.0527 79.9941 11.9238C79.7402 11.7949 79.5215 11.6035 79.3379 11.3496C79.1582 11.0957 79.0215 10.7812 78.9277 10.4062C78.834 10.0273 78.7871 9.58789 78.7871 9.08789ZM80.1523 8.58984V9.08789C80.1523 9.41211 80.1719 9.69141 80.2109 9.92578C80.25 10.1602 80.3125 10.3535 80.3984 10.5059C80.4844 10.6543 80.5977 10.7656 80.7383 10.8398C80.8789 10.9102 81.0488 10.9453 81.248 10.9453C81.498 10.9453 81.7012 10.8828 81.8574 10.7578C82.0176 10.6328 82.1406 10.4648 82.2266 10.2539C82.3164 10.0391 82.3789 9.80078 82.4141 9.53906V8.17383C82.3945 7.9668 82.3555 7.77539 82.2969 7.59961C82.2383 7.41992 82.1621 7.26367 82.0684 7.13086C81.9746 6.99805 81.8594 6.89453 81.7227 6.82031C81.5898 6.74219 81.4336 6.70312 81.2539 6.70312C81.0547 6.70312 80.8848 6.74219 80.7441 6.82031C80.6035 6.89453 80.4902 7.00977 80.4043 7.16602C80.3184 7.31836 80.2539 7.51367 80.2109 7.75195C80.1719 7.98633 80.1523 8.26562 80.1523 8.58984ZM87.3828 12.1172C86.9727 12.1172 86.6074 12.0566 86.2871 11.9355C85.9668 11.8105 85.6953 11.627 85.4727 11.3848C85.25 11.1387 85.0801 10.8379 84.9629 10.4824C84.8457 10.123 84.7871 9.70703 84.7871 9.23438V8.625C84.7871 8.08984 84.8477 7.62891 84.9688 7.24219C85.0938 6.85156 85.2656 6.53125 85.4844 6.28125C85.7031 6.03125 85.9609 5.8457 86.2578 5.72461C86.5586 5.60352 86.8848 5.54297 87.2363 5.54297C87.6348 5.54297 87.9805 5.60742 88.2734 5.73633C88.5664 5.86523 88.8066 6.05859 88.9941 6.31641C89.1855 6.57422 89.3262 6.89258 89.416 7.27148C89.5098 7.65039 89.5566 8.08594 89.5566 8.57812V9.26367H85.4434V8.23242H88.209V8.08594C88.2012 7.79688 88.166 7.54883 88.1035 7.3418C88.041 7.13086 87.9395 6.9707 87.7988 6.86133C87.6621 6.74805 87.4727 6.69141 87.2305 6.69141C87.0547 6.69141 86.8984 6.72461 86.7617 6.79102C86.625 6.85742 86.5117 6.96484 86.4219 7.11328C86.3359 7.26172 86.2695 7.46094 86.2227 7.71094C86.1758 7.95703 86.1523 8.26172 86.1523 8.625V9.23438C86.1523 9.55078 86.1797 9.81836 86.2344 10.0371C86.293 10.2559 86.3789 10.4355 86.4922 10.5762C86.6055 10.7129 86.7422 10.8145 86.9023 10.8809C87.0664 10.9434 87.2559 10.9746 87.4707 10.9746C87.7871 10.9746 88.0586 10.916 88.2852 10.7988C88.5156 10.6777 88.7148 10.5215 88.8828 10.3301L89.4863 11.168C89.373 11.3203 89.2207 11.4707 89.0293 11.6191C88.8379 11.7637 88.6055 11.8828 88.332 11.9766C88.0625 12.0703 87.7461 12.1172 87.3828 12.1172ZM93.8398 10.6758V3H95.2051V12L93.9688 12.0059L93.8398 10.6758ZM90.4355 9.08789V8.58984C90.4355 8.07031 90.4824 7.62109 90.5762 7.24219C90.6699 6.85938 90.8066 6.54102 90.9863 6.28711C91.1699 6.0332 91.3906 5.8457 91.6484 5.72461C91.9062 5.60352 92.1973 5.54297 92.5215 5.54297C92.8379 5.54297 93.1113 5.61523 93.3418 5.75977C93.5723 5.90039 93.7676 6.10156 93.9277 6.36328C94.0879 6.625 94.2148 6.9375 94.3086 7.30078C94.4062 7.66016 94.4727 8.0625 94.5078 8.50781V9.19922C94.4648 9.62891 94.3965 10.0234 94.3027 10.3828C94.209 10.7383 94.082 11.0449 93.9219 11.3027C93.7617 11.5605 93.5645 11.7617 93.3301 11.9062C93.0996 12.0469 92.8281 12.1172 92.5156 12.1172C92.1914 12.1172 91.9004 12.0527 91.6426 11.9238C91.3887 11.7949 91.1699 11.6035 90.9863 11.3496C90.8066 11.0957 90.6699 10.7812 90.5762 10.4062C90.4824 10.0273 90.4355 9.58789 90.4355 9.08789ZM91.8008 8.58984V9.08789C91.8008 9.41211 91.8203 9.69141 91.8594 9.92578C91.8984 10.1602 91.9609 10.3535 92.0469 10.5059C92.1328 10.6543 92.2461 10.7656 92.3867 10.8398C92.5273 10.9102 92.6973 10.9453 92.8965 10.9453C93.1465 10.9453 93.3496 10.8828 93.5059 10.7578C93.666 10.6328 93.7891 10.4648 93.875 10.2539C93.9648 10.0391 94.0273 9.80078 94.0625 9.53906V8.17383C94.043 7.9668 94.0039 7.77539 93.9453 7.59961C93.8867 7.41992 93.8105 7.26367 93.7168 7.13086C93.623 6.99805 93.5078 6.89453 93.3711 6.82031C93.2383 6.74219 93.082 6.70312 92.9023 6.70312C92.7031 6.70312 92.5332 6.74219 92.3926 6.82031C92.252 6.89453 92.1387 7.00977 92.0527 7.16602C91.9668 7.31836 91.9023 7.51367 91.8594 7.75195C91.8203 7.98633 91.8008 8.26562 91.8008 8.58984Z" fill="white"/>
</svg>
