<svg width="81" height="61" viewBox="0 0 81 61" fill="none" xmlns="http://www.w3.org/2000/svg">
<rect x="21.5" width="38" height="38" rx="19" fill="#0096FF"/>
<path d="M46.4297 24.656V27.0935H34.875V25.0076L40.418 19.0193C40.9961 18.363 41.4531 17.7927 41.7891 17.3083C42.125 16.824 42.3633 16.3865 42.5039 15.9958C42.6523 15.5974 42.7266 15.2185 42.7266 14.8591C42.7266 14.3357 42.6328 13.8787 42.4453 13.488C42.2578 13.0896 41.9844 12.781 41.625 12.5623C41.2734 12.3435 40.8398 12.2341 40.3242 12.2341C39.7539 12.2341 39.2656 12.3669 38.8594 12.6326C38.4609 12.8904 38.1562 13.2498 37.9453 13.7107C37.7422 14.1716 37.6406 14.699 37.6406 15.2927H34.5352C34.5352 14.2849 34.7695 13.3669 35.2383 12.5388C35.707 11.7029 36.3789 11.0349 37.2539 10.5349C38.1289 10.0349 39.168 9.78491 40.3711 9.78491C41.543 9.78491 42.5352 9.98022 43.3477 10.3708C44.1602 10.7537 44.7773 11.3005 45.1992 12.0115C45.6211 12.7224 45.832 13.5701 45.832 14.5544C45.832 15.1013 45.7422 15.6404 45.5625 16.1716C45.3828 16.7029 45.1289 17.2302 44.8008 17.7537C44.4805 18.2693 44.0977 18.7927 43.6523 19.324C43.207 19.8552 42.7109 20.3982 42.1641 20.9529L38.8359 24.656H46.4297Z" fill="white"/>
<path d="M13.1556 54.125C13.1556 53.8594 13.114 53.625 13.0306 53.4219C12.9525 53.2135 12.8119 53.026 12.6087 52.8594C12.4108 52.6927 12.1348 52.5339 11.7806 52.3828C11.4317 52.2318 10.989 52.0781 10.4525 51.9219C9.89 51.7552 9.38219 51.5703 8.92906 51.3672C8.47594 51.1589 8.08792 50.9219 7.765 50.6562C7.44208 50.3906 7.19469 50.0859 7.02281 49.7422C6.85094 49.3984 6.765 49.0052 6.765 48.5625C6.765 48.1198 6.85615 47.7109 7.03844 47.3359C7.22073 46.9609 7.48115 46.6354 7.81969 46.3594C8.16344 46.0781 8.57229 45.8594 9.04625 45.7031C9.52021 45.5469 10.0489 45.4688 10.6322 45.4688C11.4864 45.4688 12.2103 45.6328 12.8041 45.9609C13.403 46.2839 13.8587 46.7083 14.1712 47.2344C14.4837 47.7552 14.64 48.3125 14.64 48.9062H13.14C13.14 48.4792 13.0489 48.1016 12.8666 47.7734C12.6843 47.4401 12.4082 47.1797 12.0384 46.9922C11.6686 46.7995 11.1999 46.7031 10.6322 46.7031C10.0957 46.7031 9.65302 46.7839 9.30406 46.9453C8.9551 47.1068 8.69469 47.3255 8.52281 47.6016C8.35615 47.8776 8.27281 48.1927 8.27281 48.5469C8.27281 48.7865 8.32229 49.0052 8.42125 49.2031C8.52542 49.3958 8.68427 49.5755 8.89781 49.7422C9.11656 49.9089 9.3926 50.0625 9.72594 50.2031C10.0645 50.3438 10.4681 50.4792 10.9369 50.6094C11.5827 50.7917 12.14 50.9948 12.6087 51.2188C13.0775 51.4427 13.4629 51.6953 13.765 51.9766C14.0723 52.2526 14.2989 52.5677 14.4447 52.9219C14.5957 53.2708 14.6712 53.6667 14.6712 54.1094C14.6712 54.5729 14.5775 54.9922 14.39 55.3672C14.2025 55.7422 13.9343 56.0625 13.5853 56.3281C13.2364 56.5938 12.8171 56.7995 12.3275 56.9453C11.8431 57.0859 11.3015 57.1562 10.7025 57.1562C10.1765 57.1562 9.65823 57.0833 9.14781 56.9375C8.6426 56.7917 8.18167 56.5729 7.765 56.2812C7.35354 55.9896 7.02281 55.6302 6.77281 55.2031C6.52802 54.7708 6.40562 54.2708 6.40562 53.7031H7.90562C7.90562 54.0938 7.98115 54.4297 8.13219 54.7109C8.28323 54.987 8.48896 55.2161 8.74937 55.3984C9.015 55.5807 9.31448 55.7161 9.64781 55.8047C9.98635 55.888 10.3379 55.9297 10.7025 55.9297C11.2285 55.9297 11.6739 55.8568 12.0384 55.7109C12.403 55.5651 12.6791 55.3568 12.8666 55.0859C13.0593 54.8151 13.1556 54.4948 13.1556 54.125ZM21.3862 55.0469V48.5469H22.8394V57H21.4566L21.3862 55.0469ZM21.6597 53.2656L22.2612 53.25C22.2612 53.8125 22.2014 54.3333 22.0816 54.8125C21.967 55.2865 21.7795 55.6979 21.5191 56.0469C21.2586 56.3958 20.9175 56.6693 20.4956 56.8672C20.0737 57.0599 19.5607 57.1562 18.9566 57.1562C18.5451 57.1562 18.1675 57.0964 17.8237 56.9766C17.4852 56.8568 17.1935 56.6719 16.9487 56.4219C16.704 56.1719 16.5139 55.8464 16.3784 55.4453C16.2482 55.0443 16.1831 54.5625 16.1831 54V48.5469H17.6284V54.0156C17.6284 54.3958 17.6701 54.7109 17.7534 54.9609C17.842 55.2057 17.9592 55.401 18.105 55.5469C18.256 55.6875 18.4227 55.7865 18.605 55.8438C18.7925 55.901 18.9852 55.9297 19.1831 55.9297C19.7977 55.9297 20.2847 55.8125 20.6441 55.5781C21.0034 55.3385 21.2612 55.0182 21.4175 54.6172C21.579 54.2109 21.6597 53.7604 21.6597 53.2656ZM24.8747 45H26.3278V55.3594L26.2028 57H24.8747V45ZM32.0387 52.7031V52.8672C32.0387 53.4818 31.9658 54.0521 31.82 54.5781C31.6742 55.099 31.4606 55.5521 31.1794 55.9375C30.8981 56.3229 30.5544 56.6224 30.1481 56.8359C29.7419 57.0495 29.2757 57.1562 28.7497 57.1562C28.2132 57.1562 27.7419 57.0651 27.3356 56.8828C26.9346 56.6953 26.596 56.4271 26.32 56.0781C26.044 55.7292 25.8226 55.3073 25.6559 54.8125C25.4945 54.3177 25.3825 53.7604 25.32 53.1406V52.4219C25.3825 51.7969 25.4945 51.237 25.6559 50.7422C25.8226 50.2474 26.044 49.8255 26.32 49.4766C26.596 49.1224 26.9346 48.8542 27.3356 48.6719C27.7367 48.4844 28.2028 48.3906 28.7341 48.3906C29.2653 48.3906 29.7367 48.4948 30.1481 48.7031C30.5596 48.9062 30.9033 49.1979 31.1794 49.5781C31.4606 49.9583 31.6742 50.4141 31.82 50.9453C31.9658 51.4714 32.0387 52.0573 32.0387 52.7031ZM30.5856 52.8672V52.7031C30.5856 52.2812 30.5466 51.8854 30.4684 51.5156C30.3903 51.1406 30.2653 50.8125 30.0934 50.5312C29.9216 50.2448 29.695 50.0208 29.4137 49.8594C29.1325 49.6927 28.7861 49.6094 28.3747 49.6094C28.0101 49.6094 27.6924 49.6719 27.4216 49.7969C27.1559 49.9219 26.9294 50.0911 26.7419 50.3047C26.5544 50.513 26.4007 50.7526 26.2809 51.0234C26.1664 51.2891 26.0804 51.5651 26.0231 51.8516V53.7344C26.1065 54.099 26.2419 54.4505 26.4294 54.7891C26.6221 55.1224 26.8773 55.3958 27.195 55.6094C27.5179 55.8229 27.9164 55.9297 28.3903 55.9297C28.7809 55.9297 29.1143 55.8516 29.3903 55.6953C29.6716 55.5339 29.8981 55.3125 30.07 55.0312C30.2471 54.75 30.3773 54.4245 30.4606 54.0547C30.544 53.6849 30.5856 53.2891 30.5856 52.8672ZM38.6287 54.7578C38.6287 54.5495 38.5819 54.3568 38.4881 54.1797C38.3996 53.9974 38.2147 53.8333 37.9334 53.6875C37.6574 53.5365 37.2407 53.4062 36.6834 53.2969C36.2147 53.1979 35.7902 53.0807 35.41 52.9453C35.035 52.8099 34.7147 52.6458 34.4491 52.4531C34.1886 52.2604 33.9881 52.0339 33.8475 51.7734C33.7069 51.513 33.6366 51.2083 33.6366 50.8594C33.6366 50.526 33.7095 50.2109 33.8553 49.9141C34.0064 49.6172 34.2173 49.3542 34.4881 49.125C34.7642 48.8958 35.0949 48.7161 35.4803 48.5859C35.8657 48.4557 36.2954 48.3906 36.7694 48.3906C37.4465 48.3906 38.0246 48.5104 38.5037 48.75C38.9829 48.9896 39.3501 49.3099 39.6053 49.7109C39.8605 50.1068 39.9881 50.5469 39.9881 51.0312H38.5428C38.5428 50.7969 38.4725 50.5703 38.3319 50.3516C38.1965 50.1276 37.9959 49.9427 37.7303 49.7969C37.4699 49.651 37.1496 49.5781 36.7694 49.5781C36.3683 49.5781 36.0428 49.6406 35.7928 49.7656C35.548 49.8854 35.3683 50.0391 35.2537 50.2266C35.1444 50.4141 35.0897 50.612 35.0897 50.8203C35.0897 50.9766 35.1157 51.1172 35.1678 51.2422C35.2251 51.362 35.3241 51.474 35.4647 51.5781C35.6053 51.6771 35.8032 51.7708 36.0584 51.8594C36.3136 51.9479 36.6392 52.0365 37.035 52.125C37.7277 52.2812 38.298 52.4688 38.7459 52.6875C39.1939 52.9062 39.5272 53.1745 39.7459 53.4922C39.9647 53.8099 40.0741 54.1953 40.0741 54.6484C40.0741 55.0182 39.9959 55.3568 39.8397 55.6641C39.6886 55.9714 39.4673 56.237 39.1756 56.4609C38.8892 56.6797 38.5454 56.8516 38.1444 56.9766C37.7485 57.0964 37.3032 57.1562 36.8084 57.1562C36.0636 57.1562 35.4334 57.0234 34.9178 56.7578C34.4022 56.4922 34.0116 56.1484 33.7459 55.7266C33.4803 55.3047 33.3475 54.8594 33.3475 54.3906H34.8006C34.8215 54.7865 34.936 55.1016 35.1444 55.3359C35.3527 55.5651 35.6079 55.7292 35.91 55.8281C36.2121 55.9219 36.5116 55.9688 36.8084 55.9688C37.2043 55.9688 37.535 55.9167 37.8006 55.8125C38.0715 55.7083 38.2772 55.5651 38.4178 55.3828C38.5584 55.2005 38.6287 54.9922 38.6287 54.7578ZM45.1953 55.9688C45.5391 55.9688 45.8568 55.8984 46.1484 55.7578C46.4401 55.6172 46.6797 55.4245 46.8672 55.1797C47.0547 54.9297 47.1615 54.6458 47.1875 54.3281H48.5625C48.5365 54.8281 48.3672 55.2943 48.0547 55.7266C47.7474 56.1536 47.3438 56.5 46.8438 56.7656C46.3438 57.026 45.7943 57.1562 45.1953 57.1562C44.5599 57.1562 44.0052 57.0443 43.5312 56.8203C43.0625 56.5964 42.6719 56.2891 42.3594 55.8984C42.0521 55.5078 41.8203 55.0599 41.6641 54.5547C41.513 54.0443 41.4375 53.5052 41.4375 52.9375V52.6094C41.4375 52.0417 41.513 51.5052 41.6641 51C41.8203 50.4896 42.0521 50.0391 42.3594 49.6484C42.6719 49.2578 43.0625 48.9505 43.5312 48.7266C44.0052 48.5026 44.5599 48.3906 45.1953 48.3906C45.8568 48.3906 46.4349 48.526 46.9297 48.7969C47.4245 49.0625 47.8125 49.4271 48.0938 49.8906C48.3802 50.349 48.5365 50.8698 48.5625 51.4531H47.1875C47.1615 51.1042 47.0625 50.7891 46.8906 50.5078C46.724 50.2266 46.4948 50.0026 46.2031 49.8359C45.9167 49.6641 45.5807 49.5781 45.1953 49.5781C44.7526 49.5781 44.3802 49.6667 44.0781 49.8438C43.7812 50.0156 43.5443 50.25 43.3672 50.5469C43.1953 50.8385 43.0703 51.1641 42.9922 51.5234C42.9193 51.8776 42.8828 52.2396 42.8828 52.6094V52.9375C42.8828 53.3073 42.9193 53.6719 42.9922 54.0312C43.0651 54.3906 43.1875 54.7161 43.3594 55.0078C43.5365 55.2995 43.7734 55.5339 44.0703 55.7109C44.3724 55.8828 44.7474 55.9688 45.1953 55.9688ZM51.4728 49.875V57H50.0275V48.5469H51.4338L51.4728 49.875ZM54.1134 48.5L54.1056 49.8438C53.9858 49.8177 53.8713 49.8021 53.7619 49.7969C53.6577 49.7865 53.5379 49.7812 53.4025 49.7812C53.0692 49.7812 52.7749 49.8333 52.5197 49.9375C52.2645 50.0417 52.0483 50.1875 51.8713 50.375C51.6942 50.5625 51.5535 50.7865 51.4494 51.0469C51.3504 51.3021 51.2853 51.5833 51.2541 51.8906L50.8478 52.125C50.8478 51.6146 50.8973 51.1354 50.9963 50.6875C51.1004 50.2396 51.2593 49.8438 51.4728 49.5C51.6864 49.151 51.9572 48.8802 52.2853 48.6875C52.6186 48.4896 53.0145 48.3906 53.4728 48.3906C53.577 48.3906 53.6968 48.4036 53.8322 48.4297C53.9676 48.4505 54.0614 48.474 54.1134 48.5ZM56.8597 48.5469V57H55.4066V48.5469H56.8597ZM55.2972 46.3047C55.2972 46.0703 55.3675 45.8724 55.5081 45.7109C55.654 45.5495 55.8675 45.4688 56.1488 45.4688C56.4248 45.4688 56.6357 45.5495 56.7816 45.7109C56.9326 45.8724 57.0081 46.0703 57.0081 46.3047C57.0081 46.5286 56.9326 46.7214 56.7816 46.8828C56.6357 47.0391 56.4248 47.1172 56.1488 47.1172C55.8675 47.1172 55.654 47.0391 55.5081 46.8828C55.3675 46.7214 55.2972 46.5286 55.2972 46.3047ZM59.0122 45H60.4653V55.3594L60.3403 57H59.0122V45ZM66.1763 52.7031V52.8672C66.1763 53.4818 66.1033 54.0521 65.9575 54.5781C65.8117 55.099 65.5981 55.5521 65.3169 55.9375C65.0356 56.3229 64.6919 56.6224 64.2856 56.8359C63.8794 57.0495 63.4132 57.1562 62.8872 57.1562C62.3507 57.1562 61.8794 57.0651 61.4731 56.8828C61.0721 56.6953 60.7335 56.4271 60.4575 56.0781C60.1815 55.7292 59.9601 55.3073 59.7934 54.8125C59.632 54.3177 59.52 53.7604 59.4575 53.1406V52.4219C59.52 51.7969 59.632 51.237 59.7934 50.7422C59.9601 50.2474 60.1815 49.8255 60.4575 49.4766C60.7335 49.1224 61.0721 48.8542 61.4731 48.6719C61.8742 48.4844 62.3403 48.3906 62.8716 48.3906C63.4028 48.3906 63.8742 48.4948 64.2856 48.7031C64.6971 48.9062 65.0408 49.1979 65.3169 49.5781C65.5981 49.9583 65.8117 50.4141 65.9575 50.9453C66.1033 51.4714 66.1763 52.0573 66.1763 52.7031ZM64.7231 52.8672V52.7031C64.7231 52.2812 64.6841 51.8854 64.6059 51.5156C64.5278 51.1406 64.4028 50.8125 64.2309 50.5312C64.0591 50.2448 63.8325 50.0208 63.5513 49.8594C63.27 49.6927 62.9236 49.6094 62.5122 49.6094C62.1476 49.6094 61.8299 49.6719 61.5591 49.7969C61.2934 49.9219 61.0669 50.0911 60.8794 50.3047C60.6919 50.513 60.5382 50.7526 60.4184 51.0234C60.3039 51.2891 60.2179 51.5651 60.1606 51.8516V53.7344C60.244 54.099 60.3794 54.4505 60.5669 54.7891C60.7596 55.1224 61.0148 55.3958 61.3325 55.6094C61.6554 55.8229 62.0539 55.9297 62.5278 55.9297C62.9184 55.9297 63.2518 55.8516 63.5278 55.6953C63.8091 55.5339 64.0356 55.3125 64.2075 55.0312C64.3846 54.75 64.5148 54.4245 64.5981 54.0547C64.6815 53.6849 64.7231 53.2891 64.7231 52.8672ZM71.3522 57.1562C70.7636 57.1562 70.2298 57.0573 69.7506 56.8594C69.2767 56.6562 68.8678 56.3724 68.5241 56.0078C68.1855 55.6432 67.9251 55.2109 67.7428 54.7109C67.5605 54.2109 67.4694 53.6641 67.4694 53.0703V52.7422C67.4694 52.0547 67.5709 51.4427 67.7741 50.9062C67.9772 50.3646 68.2532 49.9062 68.6022 49.5312C68.9511 49.1562 69.347 48.8724 69.7897 48.6797C70.2324 48.487 70.6907 48.3906 71.1647 48.3906C71.7689 48.3906 72.2897 48.4948 72.7272 48.7031C73.1699 48.9115 73.5319 49.2031 73.8131 49.5781C74.0944 49.9479 74.3027 50.3854 74.4381 50.8906C74.5735 51.3906 74.6413 51.9375 74.6413 52.5312V53.1797H68.3288V52H73.1959V51.8906C73.1751 51.5156 73.097 51.151 72.9616 50.7969C72.8314 50.4427 72.623 50.151 72.3366 49.9219C72.0501 49.6927 71.6595 49.5781 71.1647 49.5781C70.8366 49.5781 70.5345 49.6484 70.2584 49.7891C69.9824 49.9245 69.7454 50.1276 69.5475 50.3984C69.3496 50.6693 69.1959 51 69.0866 51.3906C68.9772 51.7812 68.9225 52.2318 68.9225 52.7422V53.0703C68.9225 53.4714 68.9772 53.849 69.0866 54.2031C69.2011 54.5521 69.3652 54.8594 69.5788 55.125C69.7975 55.3906 70.0605 55.599 70.3678 55.75C70.6803 55.901 71.0345 55.9766 71.4303 55.9766C71.9407 55.9766 72.373 55.8724 72.7272 55.6641C73.0814 55.4557 73.3913 55.1771 73.6569 54.8281L74.5319 55.5234C74.3496 55.7995 74.1178 56.0625 73.8366 56.3125C73.5553 56.5625 73.209 56.7656 72.7975 56.9219C72.3913 57.0781 71.9095 57.1562 71.3522 57.1562Z" fill="#3C4852"/>
</svg>
