<svg width="81" height="61" viewBox="0 0 81 61" fill="none" xmlns="http://www.w3.org/2000/svg">
<rect x="21.5" width="38" height="38" rx="19" fill="#0096FF"/>
<path d="M42.8437 9.98413V27.0935H39.7383V13.6052L35.625 14.9646V12.4568L42.4922 9.98413H42.8437Z" fill="white"/>
<path d="M21.0894 54.125C21.0894 53.8594 21.0477 53.625 20.9644 53.4219C20.8862 53.2135 20.7456 53.026 20.5425 52.8594C20.3446 52.6927 20.0685 52.5339 19.7144 52.3828C19.3654 52.2318 18.9227 52.0781 18.3862 51.9219C17.8237 51.7552 17.3159 51.5703 16.8628 51.3672C16.4097 51.1589 16.0217 50.9219 15.6987 50.6562C15.3758 50.3906 15.1284 50.0859 14.9566 49.7422C14.7847 49.3984 14.6987 49.0052 14.6987 48.5625C14.6987 48.1198 14.7899 47.7109 14.9722 47.3359C15.1545 46.9609 15.4149 46.6354 15.7534 46.3594C16.0972 46.0781 16.506 45.8594 16.98 45.7031C17.454 45.5469 17.9826 45.4688 18.5659 45.4688C19.4201 45.4688 20.1441 45.6328 20.7378 45.9609C21.3368 46.2839 21.7925 46.7083 22.105 47.2344C22.4175 47.7552 22.5737 48.3125 22.5737 48.9062H21.0737C21.0737 48.4792 20.9826 48.1016 20.8003 47.7734C20.618 47.4401 20.342 47.1797 19.9722 46.9922C19.6024 46.7995 19.1336 46.7031 18.5659 46.7031C18.0295 46.7031 17.5868 46.7839 17.2378 46.9453C16.8889 47.1068 16.6284 47.3255 16.4566 47.6016C16.2899 47.8776 16.2066 48.1927 16.2066 48.5469C16.2066 48.7865 16.256 49.0052 16.355 49.2031C16.4592 49.3958 16.618 49.5755 16.8316 49.7422C17.0503 49.9089 17.3264 50.0625 17.6597 50.2031C17.9982 50.3438 18.4019 50.4792 18.8706 50.6094C19.5165 50.7917 20.0737 50.9948 20.5425 51.2188C21.0112 51.4427 21.3967 51.6953 21.6987 51.9766C22.006 52.2526 22.2326 52.5677 22.3784 52.9219C22.5295 53.2708 22.605 53.6667 22.605 54.1094C22.605 54.5729 22.5112 54.9922 22.3237 55.3672C22.1362 55.7422 21.868 56.0625 21.5191 56.3281C21.1701 56.5938 20.7508 56.7995 20.2612 56.9453C19.7769 57.0859 19.2352 57.1562 18.6362 57.1562C18.1102 57.1562 17.592 57.0833 17.0816 56.9375C16.5764 56.7917 16.1154 56.5729 15.6987 56.2812C15.2873 55.9896 14.9566 55.6302 14.7066 55.2031C14.4618 54.7708 14.3394 54.2708 14.3394 53.7031H15.8394C15.8394 54.0938 15.9149 54.4297 16.0659 54.7109C16.217 54.987 16.4227 55.2161 16.6831 55.3984C16.9487 55.5807 17.2482 55.7161 17.5816 55.8047C17.9201 55.888 18.2717 55.9297 18.6362 55.9297C19.1623 55.9297 19.6076 55.8568 19.9722 55.7109C20.3368 55.5651 20.6128 55.3568 20.8003 55.0859C20.993 54.8151 21.0894 54.4948 21.0894 54.125ZM25.7184 48.5469V57H24.2653V48.5469H25.7184ZM24.1559 46.3047C24.1559 46.0703 24.2262 45.8724 24.3669 45.7109C24.5127 45.5495 24.7262 45.4688 25.0075 45.4688C25.2835 45.4688 25.4945 45.5495 25.6403 45.7109C25.7914 45.8724 25.8669 46.0703 25.8669 46.3047C25.8669 46.5286 25.7914 46.7214 25.6403 46.8828C25.4945 47.0391 25.2835 47.1172 25.0075 47.1172C24.7262 47.1172 24.5127 47.0391 24.3669 46.8828C24.2262 46.7214 24.1559 46.5286 24.1559 46.3047ZM33.3553 48.5469H34.6678V56.8203C34.6678 57.5651 34.5168 58.2005 34.2147 58.7266C33.9126 59.2526 33.4907 59.651 32.9491 59.9219C32.4126 60.1979 31.7928 60.3359 31.0897 60.3359C30.798 60.3359 30.4543 60.2891 30.0584 60.1953C29.6678 60.1068 29.2824 59.9531 28.9022 59.7344C28.5272 59.5208 28.2121 59.2318 27.9569 58.8672L28.7147 58.0078C29.0689 58.4349 29.4386 58.7318 29.8241 58.8984C30.2147 59.0651 30.6001 59.1484 30.9803 59.1484C31.4386 59.1484 31.8345 59.0625 32.1678 58.8906C32.5011 58.7188 32.759 58.4635 32.9412 58.125C33.1287 57.7917 33.2225 57.3802 33.2225 56.8906V50.4062L33.3553 48.5469ZM27.535 52.8672V52.7031C27.535 52.0573 27.6105 51.4714 27.7616 50.9453C27.9178 50.4141 28.1392 49.9583 28.4256 49.5781C28.7173 49.1979 29.0689 48.9062 29.4803 48.7031C29.8918 48.4948 30.3553 48.3906 30.8709 48.3906C31.4022 48.3906 31.8657 48.4844 32.2616 48.6719C32.6626 48.8542 33.0011 49.1224 33.2772 49.4766C33.5584 49.8255 33.7798 50.2474 33.9412 50.7422C34.1027 51.237 34.2147 51.7969 34.2772 52.4219V53.1406C34.2199 53.7604 34.1079 54.3177 33.9412 54.8125C33.7798 55.3073 33.5584 55.7292 33.2772 56.0781C33.0011 56.4271 32.6626 56.6953 32.2616 56.8828C31.8605 57.0651 31.3918 57.1562 30.8553 57.1562C30.3501 57.1562 29.8918 57.0495 29.4803 56.8359C29.0741 56.6224 28.7251 56.3229 28.4334 55.9375C28.1418 55.5521 27.9178 55.099 27.7616 54.5781C27.6105 54.0521 27.535 53.4818 27.535 52.8672ZM28.9803 52.7031V52.8672C28.9803 53.2891 29.022 53.6849 29.1053 54.0547C29.1939 54.4245 29.3267 54.75 29.5037 55.0312C29.686 55.3125 29.9178 55.5339 30.1991 55.6953C30.4803 55.8516 30.8162 55.9297 31.2069 55.9297C31.686 55.9297 32.0819 55.8281 32.3944 55.625C32.7069 55.4219 32.9543 55.1536 33.1366 54.8203C33.3241 54.487 33.4699 54.125 33.5741 53.7344V51.8516C33.5168 51.5651 33.4282 51.2891 33.3084 51.0234C33.1939 50.7526 33.0428 50.513 32.8553 50.3047C32.673 50.0911 32.4465 49.9219 32.1756 49.7969C31.9048 49.6719 31.5871 49.6094 31.2225 49.6094C30.8267 49.6094 30.4855 49.6927 30.1991 49.8594C29.9178 50.0208 29.686 50.2448 29.5037 50.5312C29.3267 50.8125 29.1939 51.1406 29.1053 51.5156C29.022 51.8854 28.9803 52.2812 28.9803 52.7031ZM38.1484 50.3516V57H36.7031V48.5469H38.0703L38.1484 50.3516ZM37.8047 52.4531L37.2031 52.4297C37.2083 51.8516 37.2943 51.3177 37.4609 50.8281C37.6276 50.3333 37.862 49.9036 38.1641 49.5391C38.4661 49.1745 38.8255 48.8932 39.2422 48.6953C39.6641 48.4922 40.1302 48.3906 40.6406 48.3906C41.0573 48.3906 41.4323 48.4479 41.7656 48.5625C42.099 48.6719 42.3828 48.849 42.6172 49.0938C42.8568 49.3385 43.0391 49.6562 43.1641 50.0469C43.2891 50.4323 43.3516 50.9036 43.3516 51.4609V57H41.8984V51.4453C41.8984 51.0026 41.8333 50.6484 41.7031 50.3828C41.5729 50.112 41.3828 49.9167 41.1328 49.7969C40.8828 49.6719 40.5755 49.6094 40.2109 49.6094C39.8516 49.6094 39.5234 49.6849 39.2266 49.8359C38.9349 49.987 38.6823 50.1953 38.4688 50.4609C38.2604 50.7266 38.0964 51.0312 37.9766 51.375C37.862 51.7135 37.8047 52.0729 37.8047 52.4531ZM55.9222 45.625H57.4222V53.3203C57.4222 54.1745 57.2321 54.8854 56.8519 55.4531C56.4717 56.0208 55.9665 56.4479 55.3363 56.7344C54.7113 57.0156 54.0316 57.1562 53.2972 57.1562C52.5264 57.1562 51.8284 57.0156 51.2034 56.7344C50.5836 56.4479 50.0915 56.0208 49.7269 55.4531C49.3675 54.8854 49.1878 54.1745 49.1878 53.3203V45.625H50.68V53.3203C50.68 53.9141 50.7894 54.4036 51.0081 54.7891C51.2269 55.1745 51.5316 55.4609 51.9222 55.6484C52.318 55.8359 52.7764 55.9297 53.2972 55.9297C53.8232 55.9297 54.2816 55.8359 54.6722 55.6484C55.068 55.4609 55.3753 55.1745 55.5941 54.7891C55.8128 54.4036 55.9222 53.9141 55.9222 53.3203V45.625ZM60.8559 50.1719V60.25H59.4028V48.5469H60.7309L60.8559 50.1719ZM66.5513 52.7031V52.8672C66.5513 53.4818 66.4783 54.0521 66.3325 54.5781C66.1867 55.099 65.9731 55.5521 65.6919 55.9375C65.4158 56.3229 65.0747 56.6224 64.6684 56.8359C64.2622 57.0495 63.796 57.1562 63.27 57.1562C62.7335 57.1562 62.2596 57.0677 61.8481 56.8906C61.4367 56.7135 61.0877 56.4557 60.8013 56.1172C60.5148 55.7786 60.2856 55.3724 60.1138 54.8984C59.9471 54.4245 59.8325 53.8906 59.77 53.2969V52.4219C59.8325 51.7969 59.9497 51.237 60.1216 50.7422C60.2934 50.2474 60.52 49.8255 60.8013 49.4766C61.0877 49.1224 61.4341 48.8542 61.8403 48.6719C62.2466 48.4844 62.7153 48.3906 63.2466 48.3906C63.7778 48.3906 64.2492 48.4948 64.6606 48.7031C65.0721 48.9062 65.4184 49.1979 65.6997 49.5781C65.9809 49.9583 66.1919 50.4141 66.3325 50.9453C66.4783 51.4714 66.5513 52.0573 66.5513 52.7031ZM65.0981 52.8672V52.7031C65.0981 52.2812 65.0539 51.8854 64.9653 51.5156C64.8768 51.1406 64.7388 50.8125 64.5513 50.5312C64.369 50.2448 64.1346 50.0208 63.8481 49.8594C63.5617 49.6927 63.2205 49.6094 62.8247 49.6094C62.4601 49.6094 62.1424 49.6719 61.8716 49.7969C61.6059 49.9219 61.3794 50.0911 61.1919 50.3047C61.0044 50.513 60.8507 50.7526 60.7309 51.0234C60.6164 51.2891 60.5304 51.5651 60.4731 51.8516V53.875C60.5773 54.2396 60.7231 54.5833 60.9106 54.9062C61.0981 55.224 61.3481 55.4818 61.6606 55.6797C61.9731 55.8724 62.3664 55.9688 62.8403 55.9688C63.2309 55.9688 63.5669 55.888 63.8481 55.7266C64.1346 55.5599 64.369 55.3333 64.5513 55.0469C64.7388 54.7604 64.8768 54.4323 64.9653 54.0625C65.0539 53.6875 65.0981 53.2891 65.0981 52.8672Z" fill="#3C4852"/>
</svg>
